<svg xmlns="http://www.w3.org/2000/svg" width="15" height="15.125" viewBox="0 0 15 15.125">
  <g id="noun-module-6639004" transform="translate(0.333 0.33)">
    <rect id="Rectangle_2512" data-name="Rectangle 2512" width="15" height="15" transform="translate(-0.333 -0.33)" fill="none"/>
    <g id="noun-avatar-6962076" transform="translate(82.838 -64.455)">
      <path id="Path_3554" data-name="Path 3554" d="M19.665,18.25H7.923a1.1,1.1,0,0,1-1.094-1.094A4.179,4.179,0,0,1,11,12.981a.783.783,0,0,0,.782-.782v-.093a1.45,1.45,0,0,0-.4-1.03,5.916,5.916,0,0,1-1.5-4.042,3.909,3.909,0,0,1,7.818,0,5.916,5.916,0,0,1-1.5,4.042,1.453,1.453,0,0,0-.4,1.03V12.2a.783.783,0,0,0,.782.782,4.179,4.179,0,0,1,4.174,4.174,1.1,1.1,0,0,1-1.094,1.094ZM13.794,4.133a2.9,2.9,0,0,0-2.9,2.9,4.959,4.959,0,0,0,1.2,3.327,2.467,2.467,0,0,1,.7,1.744V12.2A1.793,1.793,0,0,1,11,13.99a3.17,3.17,0,0,0-3.166,3.166.086.086,0,0,0,.086.086H19.665a.086.086,0,0,0,.086-.086,3.17,3.17,0,0,0-3.166-3.166,1.793,1.793,0,0,1-1.79-1.79v-.093a2.466,2.466,0,0,1,.7-1.744,4.959,4.959,0,0,0,1.2-3.327,2.9,2.9,0,0,0-2.9-2.9Z" transform="translate(-89 61)" fill="#535ba4"/>
    </g>
  </g>
</svg>
