<svg xmlns="http://www.w3.org/2000/svg" width="16" height="16" viewBox="0 0 16 16">
  <g id="Group_19493" data-name="Group 19493" transform="translate(-1225 -378)">
    <rect id="Rectangle_2585" data-name="Rectangle 2585" width="16" height="16" transform="translate(1225 378)" fill="none"/>
    <path id="close-x-svgrepo-com" d="M5.335,5.335a1.143,1.143,0,0,1,1.616,0L13,11.384l6.049-6.049a1.143,1.143,0,0,1,1.616,1.616L14.616,13l6.049,6.049a1.143,1.143,0,0,1-1.616,1.616L13,14.616,6.951,20.665a1.143,1.143,0,0,1-1.616-1.616L11.384,13,5.335,6.951A1.143,1.143,0,0,1,5.335,5.335Z" transform="translate(1220 373)" fill="#0f1729" fill-rule="evenodd"/>
  </g>
</svg>
