<svg xmlns="http://www.w3.org/2000/svg" width="10.976" height="16" viewBox="0 0 10.976 16">
  <g id="noun-location-7264787" transform="translate(-21.84 -59.269)">
    <path id="Path_3562" data-name="Path 3562" d="M27.391,3.925a5.81,5.81,0,0,0-8.124,0c-3.406,3.363.039,8.568,2.554,12.369.422.638.821,1.24,1.142,1.769a.431.431,0,0,0,.734,0c.321-.529.72-1.131,1.142-1.769,2.515-3.8,5.959-9.007,2.554-12.37Zm-3.27,11.907c-.279.422-.547.827-.793,1.21-.245-.382-.513-.789-.793-1.21C20.181,12.274,16.956,7.4,19.87,4.523a4.948,4.948,0,0,1,6.915,0c2.914,2.878-.31,7.752-2.665,11.309ZM23.328,4.718a3.22,3.22,0,1,0,3.259,3.22,3.244,3.244,0,0,0-3.259-3.22Zm0,5.594a2.375,2.375,0,1,1,2.4-2.375,2.392,2.392,0,0,1-2.4,2.375Z" transform="translate(4 57)" fill="#535ba4"/>
  </g>
</svg>
