<svg xmlns="http://www.w3.org/2000/svg" width="16.627" height="16.628" viewBox="0 0 16.627 16.628">
  <g id="noun-full-screen-6648414" transform="translate(-7.637 -7.637)">
    <g id="Group_5720" data-name="Group 5720" transform="translate(7.637 7.637)">
      <path id="Path_3031" data-name="Path 3031" d="M77.623,7.637H75.4a.491.491,0,0,0,0,.981h1.036l-1.66,1.66a.491.491,0,1,0,.694.694l1.66-1.66v1.036a.491.491,0,0,0,.981,0V8.127a.49.49,0,0,0-.491-.491Z" transform="translate(-61.487 -7.637)" fill="#fef7e5"/>
      <path id="Path_3032" data-name="Path 3032" d="M10.279,74.778l-1.66,1.66V75.4a.491.491,0,0,0-.981,0v2.22a.491.491,0,0,0,.491.491h2.22a.491.491,0,1,0,0-.981H9.312l1.66-1.66a.491.491,0,1,0-.694-.694Z" transform="translate(-7.637 -61.486)" fill="#fef7e5"/>
      <path id="Path_3033" data-name="Path 3033" d="M9.312,8.618h1.036a.491.491,0,0,0,0-.981H8.128a.491.491,0,0,0-.491.491v2.22a.491.491,0,1,0,.981,0V9.312l1.66,1.66a.491.491,0,1,0,.694-.694Z" transform="translate(-7.637 -7.637)" fill="#fef7e5"/>
      <path id="Path_3034" data-name="Path 3034" d="M77.623,74.913a.49.49,0,0,0-.491.491v1.036l-1.66-1.66a.491.491,0,0,0-.694.694l1.66,1.66H75.4a.491.491,0,0,0,0,.981h2.22a.491.491,0,0,0,.491-.491V75.4a.49.49,0,0,0-.491-.491Z" transform="translate(-61.486 -61.487)" fill="#fef7e5"/>
      <path id="Path_3035" data-name="Path 3035" d="M31.168,35.059v4.553a1.061,1.061,0,0,1-1.06,1.06H20.06A1.06,1.06,0,0,1,19,39.613V35.059A1.06,1.06,0,0,1,20.06,34H30.108a1.061,1.061,0,0,1,1.06,1.059Z" transform="translate(-16.77 -28.826)" fill="#fef7e5"/>
    </g>
  </g>
</svg>
