<svg xmlns="http://www.w3.org/2000/svg" width="14.674" height="14.674" viewBox="0 0 14.674 14.674">
  <g id="noun-language-6091886" transform="translate(-6 -6)" opacity="0.65">
    <path id="Path_3555" data-name="Path 3555" d="M20.369,11.5H15.783v-5.2A.307.307,0,0,0,15.477,6H6.306A.307.307,0,0,0,6,6.306v6.42a.307.307,0,0,0,.306.306h.611v1.223a.309.309,0,0,0,.171.275.3.3,0,0,0,.135.031.294.294,0,0,0,.186-.064l1.883-1.464h1.6v5.5a.307.307,0,0,0,.306.306h6.169l1.877,1.752a.3.3,0,0,0,.208.083.349.349,0,0,0,.122-.024.309.309,0,0,0,.183-.281V18.84h.611a.307.307,0,0,0,.306-.306V11.809A.307.307,0,0,0,20.369,11.5Zm-11.18.917A.294.294,0,0,0,9,12.484L7.529,13.631v-.9a.307.307,0,0,0-.306-.306H6.611V6.611h8.56V12.42Zm10.874,5.809h-.611a.307.307,0,0,0-.306.306v1.131l-1.452-1.354a.307.307,0,0,0-.208-.083H11.5v-5.2h3.974a.307.307,0,0,0,.306-.306v-.611h4.28Z" fill="#929292"/>
    <path id="Path_3556" data-name="Path 3556" d="M34.14,31h-.611v.611H32v.611h.321a2.851,2.851,0,0,0,.9,1.816,0,0,0,0,0,0,0l-1.012.336.193.581,1.012-.336a2.781,2.781,0,0,0,.391-.165,2.6,2.6,0,0,0,.41.18L35.265,35l.2-.578-1.049-.367c-.006,0-.009-.006-.015-.006a2.841,2.841,0,0,0,.945-1.828h.321v-.611H34.14Zm-.327,2.736a2.247,2.247,0,0,1-.874-1.513h1.788A2.228,2.228,0,0,1,33.813,33.736Z" transform="translate(-18.051 -17.357)" fill="#929292"/>
    <path id="Path_3557" data-name="Path 3557" d="M17.407,10.2a.318.318,0,0,0-.547,0l-1.834,3.669a.306.306,0,1,0,.547.272l.682-1.357h1.761l.679,1.36a.308.308,0,0,0,.275.168.286.286,0,0,0,.138-.034.309.309,0,0,0,.138-.41Zm-.847,1.972.575-1.149.575,1.149Z" transform="translate(-6.243 -2.805)" fill="#929292"/>
  </g>
</svg>
