<svg xmlns="http://www.w3.org/2000/svg" width="24" height="20.738" viewBox="0 0 24 20.738">
  <g id="noun-analysis-2625221" transform="translate(9 -140)">
    <g id="Group_19180" data-name="Group 19180" transform="translate(-9 140)">
      <path id="Path_2829" data-name="Path 2829" d="M351.494,230a.5.5,0,0,0-.494.494v13.332a.5.5,0,0,0,.494.494h2.469a.5.5,0,0,0,.494-.494V230.494a.5.5,0,0,0-.494-.494Zm1.975,13.332h-1.481V230.988h1.481Z" transform="translate(-333.419 -225.556)" fill="#131f49"/>
      <path id="Path_2830" data-name="Path 2830" d="M251.494,310a.5.5,0,0,0-.494.494v9.382a.5.5,0,0,0,.494.494h2.469a.5.5,0,0,0,.494-.494v-9.382a.5.5,0,0,0-.494-.494Zm1.975,9.382h-1.481v-8.394h1.481Z" transform="translate(-238.283 -301.606)" fill="#131f49"/>
      <path id="Path_2831" data-name="Path 2831" d="M151.494,260a.5.5,0,0,0-.494.494v11.85a.5.5,0,0,0,.494.494h2.469a.5.5,0,0,0,.494-.494v-11.85a.5.5,0,0,0-.494-.494Zm1.975,11.85h-1.481V260.988h1.481Z" transform="translate(-143.174 -254.075)" fill="#131f49"/>
      <path id="Path_2832" data-name="Path 2832" d="M51.494,358.394h2.469a.5.5,0,0,0,.494-.494v-7.407a.5.5,0,0,0-.494-.494H51.494a.5.5,0,0,0-.494.494V357.9A.5.5,0,0,0,51.494,358.394Zm.494-7.406h1.481v6.419H51.988Z" transform="translate(-48.037 -339.631)" fill="#131f49"/>
      <path id="Path_2833" data-name="Path 2833" d="M14.51,540H-8.51a.493.493,0,0,0-.49.494.493.493,0,0,0,.49.494H14.51a.494.494,0,0,0,0-.988Z" transform="translate(9 -520.249)" fill="#131f49"/>
      <path id="Path_2834" data-name="Path 2834" d="M52.71,149.382a1.721,1.721,0,0,0,1.71-1.728,1.76,1.76,0,0,0-.171-.751l2.462-2.217a1.684,1.684,0,0,0,2.047-.212L60.78,145.5c0,.059-.01.118-.01.183a1.732,1.732,0,0,0,.4,1.106,1.7,1.7,0,0,0,1.314.622,1.721,1.721,0,0,0,1.71-1.728,1.761,1.761,0,0,0-.132-.667l2.355-1.852a1.678,1.678,0,0,0,.957.3,1.728,1.728,0,1,0-1.71-1.728,1.75,1.75,0,0,0,.132.672l-2.355,1.847a1.692,1.692,0,0,0-.957-.3,1.712,1.712,0,0,0-1.324.632l-1.905-.958a1.662,1.662,0,0,0,.049-.415,1.71,1.71,0,1,0-3.42,0,1.784,1.784,0,0,0,.166.746l-2.457,2.217a1.674,1.674,0,0,0-.879-.247,1.732,1.732,0,0,0-1.314,2.834A1.7,1.7,0,0,0,52.71,149.382Zm14.655-8.394A.741.741,0,1,1,66.8,142.2a.723.723,0,0,1-.171-.474A.736.736,0,0,1,67.365,140.988Zm-4.885,3.95a.741.741,0,1,1-.562,1.215.723.723,0,0,1-.171-.474A.736.736,0,0,1,62.48,144.938Zm-4.885-2.469a.736.736,0,0,1,.733.741.7.7,0,0,1-.088.351.428.428,0,0,0-.049.079.731.731,0,0,1-.6.311.738.738,0,0,1-.562-.267.723.723,0,0,1-.171-.474A.736.736,0,0,1,57.595,142.469Zm-4.885,4.444a.741.741,0,1,1-.562,1.215.723.723,0,0,1-.171-.474A.736.736,0,0,1,52.71,146.913Z" transform="translate(-48.037 -140)" fill="#131f49"/>
    </g>
  </g>
</svg>
