<svg xmlns="http://www.w3.org/2000/svg" width="24.254" height="24.25" viewBox="0 0 24.254 24.25">
  <g id="noun-vr-simulation-6614107" transform="translate(-1.338 -1.865)">
    <path id="Path_2836" data-name="Path 2836" d="M23.268,37.723l-4.619,1.828A1.977,1.977,0,0,0,18.8,38.8a2,2,0,0,0-2-2H14.258a2.018,2.018,0,0,1-1.016-.276l-1.672-.984a2.83,2.83,0,0,0-1.424-.388H6.8A1.2,1.2,0,0,0,5.6,34H3.2A1.2,1.2,0,0,0,2,35.2v7.195a1.2,1.2,0,0,0,1.2,1.2H5.6A1.2,1.2,0,0,0,6.8,42.4a4.168,4.168,0,0,1,1.64.5l2.536,1.424a6.917,6.917,0,0,0,6.215.256L24.876,41.1a1.9,1.9,0,0,0,1.016-1.064,1.722,1.722,0,0,0-.06-1.336,2.066,2.066,0,0,0-2.56-.98ZM6,42.395a.4.4,0,0,1-.4.4H3.2a.4.4,0,0,1-.4-.4V35.2a.4.4,0,0,1,.4-.4H5.6a.4.4,0,0,1,.4.4v7.195ZM25.14,39.763a1.082,1.082,0,0,1-.592.612l-7.687,3.479a6.191,6.191,0,0,1-5.5-.228L8.831,42.2A4.892,4.892,0,0,0,6.8,41.6V35.948h3.343a2.018,2.018,0,0,1,1.016.276l1.672.984a2.83,2.83,0,0,0,1.424.388H16.8A1.2,1.2,0,0,1,18,38.8a1.191,1.191,0,0,1-1.168,1.2H12.4a.4.4,0,0,0,0,.8h4.431a4.805,4.805,0,0,0,1.692-.332l5.023-1.988a1.271,1.271,0,0,1,1.556.572.919.919,0,0,1,.032.72Z" transform="translate(-0.537 -19.208)" fill="#131f49" stroke="#131f49" stroke-width="0.25"/>
    <path id="Path_2837" data-name="Path 2837" d="M23.6,8.393l2.02,7.7a.4.4,0,0,0,.388.3.427.427,0,0,0,.1-.012.4.4,0,0,0,.284-.488l-2.02-7.7a1.537,1.537,0,0,0,.4-.3L28.457,9.6A1.571,1.571,0,0,0,28.4,10a1.6,1.6,0,0,0,1.2,1.544V16a.4.4,0,0,0,.8,0V11.541A1.58,1.58,0,0,0,31.552,9.6l3.691-1.716a1.505,1.505,0,0,0,.424.316L33.62,15.888a.4.4,0,0,0,.284.488.461.461,0,0,0,.1.012.393.393,0,0,0,.384-.3l2.056-7.707a1.6,1.6,0,0,0-.04-3.2,1.579,1.579,0,0,0-1.16.508L31.556,3.982a1.571,1.571,0,0,0,.052-.392,1.6,1.6,0,1,0-3.148.392L24.77,5.7A1.6,1.6,0,1,0,23.6,8.389ZM30,10.793a.8.8,0,1,1,.8-.8A.8.8,0,0,1,30,10.793Zm6.4-4.8a.8.8,0,1,1-.8.8A.8.8,0,0,1,36.4,5.993ZM30,2.794a.8.8,0,1,1-.8.8A.8.8,0,0,1,30,2.794Zm-1.16,1.892a1.578,1.578,0,0,0,2.32,0L34.856,6.4a1.571,1.571,0,0,0-.052.392,1.6,1.6,0,0,0,.052.392L31.165,8.9a1.578,1.578,0,0,0-2.32,0L25.154,7.185a1.571,1.571,0,0,0,.052-.392,1.6,1.6,0,0,0-.052-.392ZM23.606,5.993a.8.8,0,1,1-.8.8A.8.8,0,0,1,23.606,5.993Z" transform="translate(-12.544)" fill="#131f49" stroke="#131f49" stroke-width="0.25"/>
  </g>
</svg>
