<svg xmlns="http://www.w3.org/2000/svg" width="24.463" height="24.251" viewBox="0 0 24.463 24.251">
  <g id="Group_19425" data-name="Group 19425" transform="translate(-792.252 -360.331)">
    <rect id="Rectangle_2537" data-name="Rectangle 2537" width="24" height="24" transform="translate(792.378 360.457)" fill="none"/>
    <g id="noun-crisis-simulation-7594225" transform="translate(787.528 355.213)">
      <path id="Path_2828" data-name="Path 2828" d="M11.87,9.816a.367.367,0,0,1,.734,0v2.818a.367.367,0,0,1-.734,0Zm0,3.819a.367.367,0,0,1,.734,0V13.7h0a.367.367,0,1,1-.734,0v-.068ZM14.2,11.271,12.508,8.349h0a.313.313,0,0,0-.1-.111L12.4,8.23a.344.344,0,0,0-.316,0,.313.313,0,0,0-.106.1l-.008.015L10.277,11.27,8.59,14.193a.311.311,0,0,0,0,.317.314.314,0,0,0,.276.156h6.753a.32.32,0,0,0,.147-.032l.012-.007a.316.316,0,0,0,.108-.1l.008-.015h0a.3.3,0,0,0,0-.314L14.21,11.29a.182.182,0,0,1-.012-.019Zm-1.054-3.29a1.05,1.05,0,0,0-.357-.37L12.763,7.6h0a1.057,1.057,0,0,0-1.051,0,1.041,1.041,0,0,0-.367.36l-.015.023L9.643,10.9,7.953,13.827h0A1.043,1.043,0,0,0,8.86,15.4h6.754a1.026,1.026,0,0,0,.5-.126l.025-.014h0a1.05,1.05,0,0,0,.366-.361.184.184,0,0,0,.015-.024h0a1.031,1.031,0,0,0,0-1.047l-1.679-2.9c0-.007-.007-.014-.01-.02L13.143,7.984Zm13.9,10.389a.306.306,0,1,0,.215.09.3.3,0,0,0-.215-.09Zm-4.172-6.587H22.9a.289.289,0,0,0,.066-.01.3.3,0,0,0,.185-.141.306.306,0,0,0-.53-.308.31.31,0,0,0,.111.419.3.3,0,0,0,.138.041Zm-3.926,6.676h0a.306.306,0,1,0,.089.215.306.306,0,0,0-.089-.215ZM8.134,17.873a.33.33,0,0,1,.031.025l.07.053.624-.624a.367.367,0,0,1,.454-.051,5.473,5.473,0,0,0,1.678.7.367.367,0,0,1,.314.362v.883a6.845,6.845,0,0,0,1.862,0v-.882a.364.364,0,0,1,.285-.356,5.483,5.483,0,0,0,1.683-.693.367.367,0,0,1,.479.036l.623.624a6.734,6.734,0,0,0,1.318-1.317l-.623-.624a.363.363,0,0,1-.051-.452,5.516,5.516,0,0,0,.7-1.679.366.366,0,0,1,.362-.314h.882a6.755,6.755,0,0,0,0-1.861h-.881a.368.368,0,0,1-.357-.286A5.475,5.475,0,0,0,16.9,9.736a.366.366,0,0,1,.036-.478l.129-.129,0-.005.49-.49a6.757,6.757,0,0,0-1.317-1.317l-.624.621a.365.365,0,0,1-.454.051,5.494,5.494,0,0,0-1.679-.7.366.366,0,0,1-.313-.362V6.043a6.762,6.762,0,0,0-1.862,0v.882a.366.366,0,0,1-.286.357,5.418,5.418,0,0,0-.881.281,5.507,5.507,0,0,0-.8.412.367.367,0,0,1-.478-.036l-.624-.624h0A6.706,6.706,0,0,0,6.92,8.632l.623.622a.365.365,0,0,1,.051.454,5.508,5.508,0,0,0-.7,1.681.366.366,0,0,1-.362.313H5.647a6.845,6.845,0,0,0,0,1.862H6.53a.365.365,0,0,1,.356.286,5.488,5.488,0,0,0,.693,1.682.366.366,0,0,1-.036.479l-.623.624a6.759,6.759,0,0,0,1.214,1.238Zm14.742,9.089H13.743a.179.179,0,0,0-.177.176v1.2a.178.178,0,0,0,.177.176h9.133a.177.177,0,0,0,.176-.176v-1.2A.177.177,0,0,0,22.876,26.962Zm-5.684-.733h2.233V24.222H17.193V26.23Zm-3.45,0h0a.911.911,0,0,0-.908.909v1.2a.912.912,0,0,0,.91.91h9.133a.911.911,0,0,0,.91-.91v-1.2a.911.911,0,0,0-.91-.909H20.16V24.222h7.5a1.436,1.436,0,0,0,.982-.384,1.3,1.3,0,0,0,.423-.953V10.354a1.3,1.3,0,0,0-.423-.954,1.44,1.44,0,0,0-.982-.383H18.209l.086-.086h0a.367.367,0,0,0,.029-.486,7.376,7.376,0,0,0-1.9-1.9.367.367,0,0,0-.486.028l-.643.642h0A6.15,6.15,0,0,0,13.9,6.639V5.732a.366.366,0,0,0-.3-.359A7.388,7.388,0,0,0,10.9,5.366a.368.368,0,0,0-.325.366V6.64a6.219,6.219,0,0,0-1.394.578l-.643-.642a.368.368,0,0,0-.466-.043A7.383,7.383,0,0,0,6.152,8.444a.368.368,0,0,0,.029.486l.642.643h0a6.1,6.1,0,0,0-.578,1.394H5.336a.365.365,0,0,0-.359.3,7.416,7.416,0,0,0-.005,2.707.367.367,0,0,0,.364.326h.909a6.112,6.112,0,0,0,.578,1.4l-.642.641a.367.367,0,0,0-.044.465,7.352,7.352,0,0,0,.877,1.056c.173.173.354.336.545.492v4.536a1.305,1.305,0,0,0,.423.953,1.443,1.443,0,0,0,.985.384h7.494V26.23Zm14.586-5.107v1.762a.578.578,0,0,1-.187.418.711.711,0,0,1-.485.187H8.965A.711.711,0,0,1,8.48,23.3a.578.578,0,0,1-.187-.418V21.123ZM8.291,20.39H28.328V10.353a.576.576,0,0,0-.187-.418.711.711,0,0,0-.485-.187H17.749q.129.247.236.5a6.405,6.405,0,0,1,.246.715h.908a.367.367,0,0,1,.364.326A7.4,7.4,0,0,1,19.5,14a.366.366,0,0,1-.359.3h-.908a6.406,6.406,0,0,1-.246.715,6.185,6.185,0,0,1-.333.68l.643.642h0a.367.367,0,0,1,.028.486,7.36,7.36,0,0,1-1.918,1.91.365.365,0,0,1-.465-.043l-.643-.643a6.17,6.17,0,0,1-1.394.578v.912a.367.367,0,0,1-.328.364,7.382,7.382,0,0,1-2.7,0,.367.367,0,0,1-.3-.36v-.908a6.136,6.136,0,0,1-1.4-.577l-.641.641a.368.368,0,0,1-.244.107v1.593Zm2.038,2.325a.367.367,0,0,1,0-.733h.8a.367.367,0,0,1,0,.733Zm13.465-8.008.906.523v2.1l-.906.523-.019.012-.886.511-1.812-1.045v-2.1l1.812-1.045Zm-.538-1.155.906.523,1.089.628h0a.365.365,0,0,1,.183.316v2.305l.952.55a1.038,1.038,0,1,1-.38.8,1.011,1.011,0,0,1,.014-.17l-.953-.55-.906.523-.02.01-1.07.617h0a.367.367,0,0,1-.366,0l-2-1.153-.952.55a1.039,1.039,0,1,1-.366-.634l.952-.55V15.019a.366.366,0,0,1,.215-.333l1.964-1.134v-1.1a1.023,1.023,0,0,1-.114-.051.372.372,0,0,1-.074-.043A1.034,1.034,0,0,1,21.969,11a.364.364,0,0,1,.043-.073,1.033,1.033,0,0,1,1.39-.346l.01.006h0a1.038,1.038,0,0,1-.158,1.865Z" transform="translate(0 0)" fill="#131f49" stroke="#131f49" stroke-width="0.25" fill-rule="evenodd"/>
    </g>
  </g>
</svg>
