<svg xmlns="http://www.w3.org/2000/svg" width="24" height="24" viewBox="0 0 24 24">
  <g id="Group_19191" data-name="Group 19191" transform="translate(0 0)">
    <g id="Group_19181" data-name="Group 19181" transform="translate(15.5 15.5)">
      <path id="Path_2839" data-name="Path 2839" d="M325.25,334.5a4.25,4.25,0,1,1,4.25-4.25A4.255,4.255,0,0,1,325.25,334.5Zm0-7.5a3.25,3.25,0,1,0,3.25,3.25A3.254,3.254,0,0,0,325.25,327Z" transform="translate(-321 -326)" fill="#131f49"/>
    </g>
    <g id="Group_19182" data-name="Group 19182" transform="translate(16.403 20.5)">
      <path id="Path_2840" data-name="Path 2840" d="M345.263,428.19a.5.5,0,0,1-.356-.149,3.5,3.5,0,0,0-4.981,0,.5.5,0,1,1-.712-.7,4.5,4.5,0,0,1,6.4,0,.5.5,0,0,1-.356.851Z" transform="translate(-339.069 -426)" fill="#131f49"/>
    </g>
    <g id="Group_19183" data-name="Group 19183" transform="translate(17.75 17.5)">
      <path id="Path_2841" data-name="Path 2841" d="M368,370a2,2,0,1,1,2-2A2,2,0,0,1,368,370Zm0-3a1,1,0,1,0,1,1A1,1,0,0,0,368,367Z" transform="translate(-366 -366)" fill="#131f49"/>
    </g>
    <g id="Group_19184" data-name="Group 19184" transform="translate(0 15.5)">
      <path id="Path_2842" data-name="Path 2842" d="M25.25,334.5a4.25,4.25,0,1,1,4.25-4.25A4.255,4.255,0,0,1,25.25,334.5Zm0-7.5a3.25,3.25,0,1,0,3.25,3.25A3.254,3.254,0,0,0,25.25,327Z" transform="translate(-21 -326)" fill="#131f49"/>
    </g>
    <g id="Group_19185" data-name="Group 19185" transform="translate(0.903 20.5)">
      <path id="Path_2843" data-name="Path 2843" d="M45.263,428.19a.5.5,0,0,1-.356-.149,3.5,3.5,0,0,0-4.981,0,.5.5,0,1,1-.712-.7,4.5,4.5,0,0,1,6.4,0,.5.5,0,0,1-.356.851Z" transform="translate(-39.07 -426)" fill="#131f49"/>
    </g>
    <g id="Group_19186" data-name="Group 19186" transform="translate(2.25 17.5)">
      <path id="Path_2844" data-name="Path 2844" d="M68,370a2,2,0,1,1,2-2A2,2,0,0,1,68,370Zm0-3a1,1,0,1,0,1,1A1,1,0,0,0,68,367Z" transform="translate(-66 -366)" fill="#131f49"/>
    </g>
    <g id="Group_19187" data-name="Group 19187" transform="translate(6.112)">
      <path id="Path_2845" data-name="Path 2845" d="M145.374,28h-2.5a.5.5,0,0,1-.5-.5v-.815a5.025,5.025,0,0,1-1.431-.827l-.707.408a.5.5,0,0,1-.683-.183l-1.25-2.165a.5.5,0,0,1,.183-.683l.706-.408a5.029,5.029,0,0,1,0-1.653l-.706-.408a.5.5,0,0,1-.183-.683l1.25-2.165a.5.5,0,0,1,.683-.183l.707.408a5.025,5.025,0,0,1,1.431-.827V16.5a.5.5,0,0,1,.5-.5h2.5a.5.5,0,0,1,.5.5v.815a5.026,5.026,0,0,1,1.431.827l.707-.408a.5.5,0,0,1,.683.183l1.25,2.165a.5.5,0,0,1-.183.683l-.706.408a5.032,5.032,0,0,1,0,1.653l.706.408a.5.5,0,0,1,.183.683l-1.25,2.165a.5.5,0,0,1-.683.183l-.707-.408a5.025,5.025,0,0,1-1.431.827V27.5A.5.5,0,0,1,145.374,28Zm-2-1h1.5v-.676a.5.5,0,0,1,.361-.48,4.01,4.01,0,0,0,1.661-.96.5.5,0,0,1,.6-.073l.587.339.75-1.3-.586-.338a.5.5,0,0,1-.235-.553,4.025,4.025,0,0,0,0-1.919.5.5,0,0,1,.236-.553l.586-.338-.75-1.3-.587.339a.5.5,0,0,1-.6-.073,4.011,4.011,0,0,0-1.661-.96.5.5,0,0,1-.361-.48V17h-1.5v.676a.5.5,0,0,1-.361.48,4.01,4.01,0,0,0-1.661.96.5.5,0,0,1-.6.073l-.587-.339-.75,1.3.586.338a.5.5,0,0,1,.236.553,4.023,4.023,0,0,0,0,1.919.5.5,0,0,1-.236.553l-.586.338.75,1.3.587-.339a.5.5,0,0,1,.6.073,4.011,4.011,0,0,0,1.661.96.5.5,0,0,1,.361.48V27Z" transform="translate(-138.235 -16)" fill="#131f49"/>
    </g>
    <g id="Group_19188" data-name="Group 19188" transform="translate(9.5 3.5)">
      <path id="Path_2846" data-name="Path 2846" d="M208.5,91a2.5,2.5,0,1,1,2.5-2.5A2.5,2.5,0,0,1,208.5,91Zm0-4a1.5,1.5,0,1,0,1.5,1.5A1.5,1.5,0,0,0,208.5,87Z" transform="translate(-206 -86)" fill="#131f49"/>
    </g>
    <g id="Group_19189" data-name="Group 19189" transform="translate(4 13.5)">
      <path id="Path_2847" data-name="Path 2847" d="M111.5,289a.5.5,0,0,1-.5-.5V287H97v1.5a.5.5,0,1,1-1,0v-2a.5.5,0,0,1,.5-.5h15a.5.5,0,0,1,.5.5v2A.5.5,0,0,1,111.5,289Z" transform="translate(-96 -286)" fill="#131f49"/>
    </g>
    <g id="Group_19190" data-name="Group 19190" transform="translate(11.5 11)">
      <path id="Path_2848" data-name="Path 2848" d="M246.5,239.5a.5.5,0,0,1-.5-.5v-2.5a.5.5,0,1,1,1,0V239A.5.5,0,0,1,246.5,239.5Z" transform="translate(-246 -236)" fill="#131f49"/>
    </g>
  </g>
</svg>
