<svg xmlns="http://www.w3.org/2000/svg" width="24.5" height="21.841" viewBox="0 0 24.5 21.841">
  <g id="noun-adaptive-learning-7106989" transform="translate(-1.373 -8.084)">
    <path id="Path_2835" data-name="Path 2835" d="M7.258,20.041l.328-1.057a.245.245,0,0,1,.233-.173h1.5A.246.246,0,0,1,9.557,19L9.88,20.04c.127.04.251.085.373.135s.24.106.359.169l.981-.516a.246.246,0,0,1,.287.043l1.06,1.06a.244.244,0,0,1,.035.3l-.509.966c.063.119.119.238.169.359s.1.245.135.373l1.057.328a.245.245,0,0,1,.173.233h0v1.5a.246.246,0,0,1-.191.239l-1.039.323c-.04.127-.085.251-.135.373s-.106.239-.169.358l.516.981a.246.246,0,0,1-.043.287l-1.06,1.06a.244.244,0,0,1-.3.035l-.966-.509c-.119.063-.239.119-.358.169s-.246.1-.373.135L9.553,29.5a.245.245,0,0,1-.233.173h-1.5a.246.246,0,0,1-.239-.191l-.323-1.039c-.127-.04-.251-.085-.373-.135s-.24-.106-.359-.169l-.981.516a.246.246,0,0,1-.287-.043L4.2,27.554a.244.244,0,0,1-.035-.3l.509-.966c-.063-.119-.119-.239-.169-.359s-.1-.245-.135-.373L3.31,25.225a.245.245,0,0,1-.173-.233v-1.5a.246.246,0,0,1,.191-.239l1.039-.323c.04-.127.085-.251.135-.373s.106-.24.169-.359l-.516-.98a.246.246,0,0,1,.043-.287l1.06-1.06a.244.244,0,0,1,.3-.035l.966.509c.119-.063.239-.119.358-.169s.245-.1.372-.135Zm-.033-3.056a.244.244,0,1,1,.357-.333l.742.8V14.5A1.551,1.551,0,0,1,9.87,12.953h3.307a.245.245,0,1,1,0,.49H9.87A1.059,1.059,0,0,0,8.814,14.5v2.948l.742-.8a.245.245,0,0,1,.358.333L8.759,18.223a.246.246,0,0,1-.38,0Zm11.937,1.406a.244.244,0,0,1-.357-.333l1.155-1.238a.246.246,0,0,1,.38,0l1.155,1.238a.245.245,0,0,1-.358.333l-.742-.8v5.346a1.551,1.551,0,0,1-1.546,1.546H14.743a.245.245,0,0,1,0-.49h4.1A1.059,1.059,0,0,0,19.9,22.941V17.595ZM25.827,15.1l-.18.835h.944l-.18-.835a.91.91,0,0,1-.291.047.878.878,0,0,1-.293-.047Zm1.016-.31a.916.916,0,0,0-.481-1.438V10.9a.244.244,0,0,0-.193-.239L18.89,8.347a.244.244,0,0,0-.149,0l-7.3,2.323a.244.244,0,0,0,0,.465l2.48.788V14.67a.245.245,0,0,0,.129.216,8.863,8.863,0,0,0,9.532.078.246.246,0,0,0,.132-.218V11.922l2.162-.687v2.119a.917.917,0,0,0-.67.881.907.907,0,0,0,.189.557L25.1,16.13a.245.245,0,0,0,.187.291.231.231,0,0,0,.052.006h1.55a.245.245,0,0,0,.245-.245.259.259,0,0,0-.008-.063Zm-.725-.981a.424.424,0,1,1-.3.124.423.423,0,0,1,.3-.124Zm-7.3-2.665a.245.245,0,0,1,0-.49h5.728l-2.151-.684L18.816,8.834l-6.5,2.067,1.9.6a.225.225,0,0,1,.044.014l4.555,1.448,5.728-1.822Zm-4.407,3.392v-2.46l4.331,1.377a.244.244,0,0,0,.149,0l4.333-1.378v2.534a8.374,8.374,0,0,1-8.814-.074Zm-5.84,6.956a2.749,2.749,0,1,0,1.944.805A2.736,2.736,0,0,0,8.569,21.494Zm1.6,1.151a2.26,2.26,0,1,0,.661,1.6A2.25,2.25,0,0,0,10.166,22.645ZM8,19.3,7.685,20.31a.242.242,0,0,1-.168.163,3.908,3.908,0,0,0-.445.154,3.984,3.984,0,0,0-.41.2.249.249,0,0,1-.249.013l-.937-.493-.805.805.493.937h0a.244.244,0,0,1,0,.233,3.714,3.714,0,0,0-.206.425,3.8,3.8,0,0,0-.152.439.245.245,0,0,1-.165.174l-1.009.313v1.139l1.009.313a.245.245,0,0,1,.164.168,3.907,3.907,0,0,0,.154.445,3.985,3.985,0,0,0,.2.41.246.246,0,0,1,.012.249l-.493.937.805.805.937-.493h0a.244.244,0,0,1,.233,0,3.714,3.714,0,0,0,.425.206,3.805,3.805,0,0,0,.439.152.245.245,0,0,1,.174.165L8,29.183H9.138l.313-1.009a.242.242,0,0,1,.168-.163,3.908,3.908,0,0,0,.445-.154,3.985,3.985,0,0,0,.41-.2.246.246,0,0,1,.249-.012l.937.493.805-.805-.493-.937h0a.244.244,0,0,1,0-.233,3.714,3.714,0,0,0,.206-.425,3.806,3.806,0,0,0,.152-.439.245.245,0,0,1,.165-.174l1.009-.313V23.673L12.5,23.36a.242.242,0,0,1-.163-.168,3.908,3.908,0,0,0-.154-.445,3.985,3.985,0,0,0-.2-.41.244.244,0,0,1-.012-.248l.493-.937-.805-.805-.937.493h0a.244.244,0,0,1-.233,0,3.712,3.712,0,0,0-.425-.206,3.8,3.8,0,0,0-.439-.152.245.245,0,0,1-.174-.165L9.139,19.3Z" transform="translate(-1.514 0)" fill="#131f49" stroke="#131f49" stroke-width="0.5" fill-rule="evenodd"/>
  </g>
</svg>
