<svg xmlns="http://www.w3.org/2000/svg" width="16.25" height="16.127" viewBox="0 0 16.25 16.127">
  <g id="noun-module-6639004" transform="translate(11.059 -3.997)">
    <rect id="Rectangle_2512" data-name="Rectangle 2512" width="16" height="16" transform="translate(-10.934 4.124)" fill="none"/>
    <path id="Path_2694" data-name="Path 2694" d="M19.046,12.461s-.008-.017-.011-.025A.3.3,0,0,0,19,12.378l-.017-.019a.24.24,0,0,0-.077-.052h0l-3.694-1.583V5.936a.287.287,0,0,0-.019-.1c0-.008-.008-.017-.011-.025a.3.3,0,0,0-.039-.058l-.017-.019a.24.24,0,0,0-.077-.052h0L11.187,4.03a.272.272,0,0,0-.218,0L7.109,5.685h0a.317.317,0,0,0-.077.052l-.017.019a.213.213,0,0,0-.039.058.1.1,0,0,0-.011.025.287.287,0,0,0-.019.1V10.72L3.253,12.3h0a.317.317,0,0,0-.077.052l-.017.019a.213.213,0,0,0-.039.058.1.1,0,0,0-.011.025.287.287,0,0,0-.019.1V17.52a.277.277,0,0,0,.168.254L7.12,19.429h0a.273.273,0,0,0,.215,0h0l3.754-1.608,3.754,1.608h0a.273.273,0,0,0,.215,0h0l3.862-1.655a.277.277,0,0,0,.168-.254V12.554a.287.287,0,0,0-.019-.1Zm-12.119,6.3-3.31-1.418V12.976l3.31,1.418ZM7.2,13.912,4.042,12.557,7.2,11.2l3.161,1.354Zm3.586,3.429-3.31,1.418V14.394l3.31-1.418Zm0-5.2-1.517-.651-1.793-.77V6.353l3.31,1.418v4.364ZM7.9,5.936l3.161-1.354,3.161,1.354L11.065,7.291Zm6.748.419V10.72l-1.793.77-1.517.651V7.776l3.31-1.418Zm0,12.4-3.31-1.418V12.976l3.31,1.418Zm.276-4.847-3.161-1.354L14.927,11.2l3.161,1.354Zm3.586,3.429L15.2,18.759V14.394l3.31-1.418Z" transform="translate(-14.024 0.116)" fill="#131f49" stroke="#131f49" stroke-width="0.25"/>
  </g>
</svg>
