<svg xmlns="http://www.w3.org/2000/svg" width="13.955" height="17.208" viewBox="0 0 13.955 17.208">
  <g id="Group_5726" data-name="Group 5726" transform="translate(-989.345 -745.792)">
    <text id="_10" data-name="10" transform="translate(992.02 761)" fill="#fef7e5" font-size="7" font-family="OpenSans-Regular, Open Sans"><tspan x="0" y="0">10</tspan></text>
    <g id="noun-forward-6560278" transform="translate(989.345 745.792)">
      <path id="Path_3030" data-name="Path 3030" d="M21.607,23.809l-4.42-3.69a.562.562,0,0,0-.694,0,.364.364,0,0,0,0,.58l3.582,2.99h-5.2C11.084,23.689,8,26.172,8,29.224a.5.5,0,0,0,.982,0c0-2.6,2.644-4.715,5.894-4.715h5.2L16.493,27.5a.364.364,0,0,0,0,.58.562.562,0,0,0,.694,0l4.42-3.689h0l.347-.289-.347-.289Z" transform="translate(-8 -19.999)" fill="#fef7e5"/>
    </g>
  </g>
</svg>
