<svg xmlns="http://www.w3.org/2000/svg" width="13.955" height="17.208" viewBox="0 0 13.955 17.208">
  <g id="Group_5725" data-name="Group 5725" transform="translate(-910.345 -745.792)">
    <text id="_10" data-name="10" transform="translate(914.02 761)" fill="#fef7e5" font-size="7" font-family="OpenSans-Regular, Open Sans"><tspan x="0" y="0">10</tspan></text>
    <g id="noun-forward-6560278" transform="translate(910.345 745.792)">
      <path id="Path_3030" data-name="Path 3030" d="M8.348,23.809l4.42-3.69a.562.562,0,0,1,.694,0,.364.364,0,0,1,0,.58L9.88,23.689h5.2c3.791,0,6.876,2.483,6.876,5.535a.5.5,0,0,1-.982,0c0-2.6-2.644-4.715-5.894-4.715H9.88l3.582,2.99a.364.364,0,0,1,0,.58.562.562,0,0,1-.694,0L8.348,24.39h0L8,24.1l.347-.289Z" transform="translate(-8 -19.999)" fill="#fef7e5"/>
    </g>
  </g>
</svg>
