<svg xmlns="http://www.w3.org/2000/svg" width="12.466" height="14.3" viewBox="0 0 12.466 14.3">
  <g id="Group_4677" data-name="Group 4677" transform="translate(0.15 0.15)">
    <g id="Group_4676" data-name="Group 4676" transform="translate(0 0)">
      <path id="Path_439" data-name="Path 439" d="M46.753,26.385a1.882,1.882,0,0,1,.9,3.538l-.008,0-.009.006a.879.879,0,0,1-1.756,0l-.007,0-.011,0a1.882,1.882,0,0,1,.9-3.538Zm0,4.03a.568.568,0,0,0,.5-.47H46.25A.567.567,0,0,0,46.753,30.414ZM46,29.579h.573V28.516l-.294-.293a.183.183,0,1,1,.258-.259l.219.218.218-.218a.183.183,0,1,1,.258.259l-.294.293v1.062h.574a1.516,1.516,0,1,0-1.513,0Z" transform="translate(-41.616 -23.631)" fill="#747474" stroke="#707070" stroke-width="0.3"/>
      <path id="Path_440" data-name="Path 440" d="M54.157,19.005v-.5a.183.183,0,1,1,.366,0v.5a.183.183,0,1,1-.366,0Z" transform="translate(-49.202 -16.941)" fill="#747474" stroke="#707070" stroke-width="0.3"/>
      <path id="Path_441" data-name="Path 441" d="M71.355,37.583a.183.183,0,0,1-.183.183h-.5a.183.183,0,0,1,0-.366h.5A.183.183,0,0,1,71.355,37.583Z" transform="translate(-69.022 -32.653)" fill="#747474" stroke="#707070" stroke-width="0.3"/>
      <path id="Path_442" data-name="Path 442" d="M35.946,37.583a.183.183,0,0,1-.183.183h-.5a.183.183,0,1,1,0-.366h.5A.183.183,0,0,1,35.946,37.583Z" transform="translate(-27.136 -32.653)" fill="#747474" stroke="#707070" stroke-width="0.3"/>
      <path id="Path_443" data-name="Path 443" d="M66.017,23.962l.356.356a.183.183,0,1,1-.259.259l-.356-.356a.183.183,0,0,1,.259-.259Z" transform="translate(-63.218 -21.569)" fill="#747474" stroke="#707070" stroke-width="0.3"/>
      <path id="Path_444" data-name="Path 444" d="M41.2,49.668a.182.182,0,0,1-.129-.053l-.356-.355A.183.183,0,0,1,40.977,49l.356.355a.183.183,0,0,1-.129.312Z" transform="translate(-33.598 -42.144)" fill="#747474" stroke="#707070" stroke-width="0.3"/>
      <path id="Path_445" data-name="Path 445" d="M66.114,49a.183.183,0,0,1,.259.259l-.356.355a.183.183,0,0,1-.259-.259Z" transform="translate(-63.218 -42.144)" fill="#747474" stroke="#707070" stroke-width="0.3"/>
      <path id="Path_446" data-name="Path 446" d="M40.718,24.317l.356-.356a.183.183,0,0,1,.259.259l-.356.356a.183.183,0,0,1-.259-.259Z" transform="translate(-33.598 -21.569)" fill="#747474" stroke="#707070" stroke-width="0.3"/>
      <path id="Path_447" data-name="Path 447" d="M60.788,20.607a.183.183,0,0,1-.169-.113l-.193-.464a.183.183,0,1,1,.338-.141l.193.464a.183.183,0,0,1-.169.253Z" transform="translate(-56.795 -18.133)" fill="#747474" stroke="#707070" stroke-width="0.3"/>
      <path id="Path_448" data-name="Path 448" d="M69.423,44.216a.183.183,0,0,1-.07-.352l.464-.193a.183.183,0,1,1,.14.338l-.464.193A.184.184,0,0,1,69.423,44.216Z" transform="translate(-67.508 -37.796)" fill="#747474" stroke="#707070" stroke-width="0.3"/>
      <path id="Path_449" data-name="Path 449" d="M36.785,30.633a.183.183,0,0,1-.14-.338l.465-.193a.183.183,0,0,1,.14.338Z" transform="translate(-28.818 -26.646)" fill="#747474" stroke="#707070" stroke-width="0.3"/>
      <path id="Path_450" data-name="Path 450" d="M69.5,30.12l.465.193a.183.183,0,1,1-.14.338l-.465-.193a.183.183,0,0,1,.14-.338Z" transform="translate(-67.517 -26.661)" fill="#747474" stroke="#707070" stroke-width="0.3"/>
      <path id="Path_451" data-name="Path 451" d="M37.173,44.2a.182.182,0,0,1-.07-.014l-.465-.192a.183.183,0,1,1,.14-.338l.465.192a.183.183,0,0,1-.07.352Z" transform="translate(-28.81 -37.782)" fill="#747474" stroke="#707070" stroke-width="0.3"/>
      <path id="Path_452" data-name="Path 452" d="M47.049,20.6a.183.183,0,0,1-.169-.253l.192-.465a.183.183,0,1,1,.338.14l-.192.465A.183.183,0,0,1,47.049,20.6Z" transform="translate(-40.77 -18.125)" fill="#747474" stroke="#707070" stroke-width="0.3"/>
      <path id="Path_453" data-name="Path 453" d="M16.756,15.763a5.1,5.1,0,0,1,10.2,0,4.888,4.888,0,0,1-.06.745l1.792,1.94c.285.313.243.544.193.653s-.185.277-.567.277H27.063v2.777a1.04,1.04,0,0,1-1.051,1.026H23.955v1.425a.183.183,0,0,1-.366,0V23.182h-.215a1.684,1.684,0,0,1-1.7-1.661V20.442a.183.183,0,0,1,.366,0V21.52a1.322,1.322,0,0,0,1.335,1.3h2.638a.678.678,0,0,0,.685-.669V19.2a.181.181,0,0,1,.183-.179h1.434c.139,0,.219-.035.233-.066s-.007-.133-.131-.269l-1.847-2s0-.006-.005-.009a.175.175,0,0,1-.019-.032.166.166,0,0,1-.014-.029.163.163,0,0,1,0-.033.166.166,0,0,1,0-.036s0-.007,0-.01a4.561,4.561,0,0,0,.067-.774,4.737,4.737,0,0,0-9.47,0A4.561,4.561,0,0,0,18.809,19.3l0,.006a.43.43,0,0,1,.043.056.157.157,0,0,1,.009.03.167.167,0,0,1,.008.037s0,0,0,.007v5.171a.183.183,0,0,1-.366,0V19.515A4.91,4.91,0,0,1,16.756,15.763Z" transform="translate(-16.756 -10.785)" fill="#747474" stroke="#707070" stroke-width="0.3"/>
    </g>
  </g>
</svg>
