<svg xmlns="http://www.w3.org/2000/svg" width="13.996" height="13.996" viewBox="0 0 13.996 13.996">
  <g id="Group_4680" data-name="Group 4680" transform="translate(19048 -19578)">
    <g id="Group_4679" data-name="Group 4679" transform="translate(-19048 19578)">
      <g id="Group_4678" data-name="Group 4678" transform="translate(0 0)">
        <path id="Path_454" data-name="Path 454" d="M16.907,13.722a.247.247,0,0,0,.193-.241v-.241h.833a1.05,1.05,0,1,0,0-.483H17.1v-.241a.247.247,0,0,0-.193-.241l-.9-.181a3.577,3.577,0,0,0-.241-.591l.507-.76a.239.239,0,0,0-.036-.3l-.688-.688a.239.239,0,0,0-.3-.036l-.519.338V8.413h2.232a1.05,1.05,0,1,0,0-.483H14.494a.242.242,0,0,0-.241.241v1.955c-.121-.048-.241-.1-.362-.133l-.169-.9a.247.247,0,0,0-.241-.193h-.241v-1a.965.965,0,1,0-.483,0v1h-.241a.247.247,0,0,0-.241.193l-.181.9c-.121.036-.241.084-.362.133V8.172a.242.242,0,0,0-.241-.241H9.028a1.05,1.05,0,1,0,0,.483h2.232v1.653l-.519-.338a.237.237,0,0,0-.3.036l-.688.688a.239.239,0,0,0-.036.3l.507.76a3.577,3.577,0,0,0-.241.591l-.893.169a.247.247,0,0,0-.193.241v.241H8.063a1.05,1.05,0,1,0,0,.483H8.9v.241a.247.247,0,0,0,.193.241l.9.181a3.577,3.577,0,0,0,.241.591l-.507.76a.239.239,0,0,0,.036.3l.688.688a.239.239,0,0,0,.3.036l.519-.338v1.641H9.028a1.05,1.05,0,1,0,0,.483H11.5a.242.242,0,0,0,.241-.241V15.87a3.2,3.2,0,0,0,.362.133l.181.9a.247.247,0,0,0,.241.193h.241v1a.965.965,0,1,0,.483,0v-1h.241a.247.247,0,0,0,.241-.193l.181-.9c.121-.036.241-.084.362-.133v1.955a.242.242,0,0,0,.241.241h2.473a1.05,1.05,0,1,0,0-.483H14.735V15.93l.519.338a.237.237,0,0,0,.3-.036l.688-.688a.239.239,0,0,0,.036-.3l-.507-.76a3.577,3.577,0,0,0,.241-.591Zm2.039-1.291a.567.567,0,1,1-.567.567h0A.582.582,0,0,1,18.946,12.431ZM17.981,7.6a.567.567,0,1,1-.567.567h0A.582.582,0,0,1,17.981,7.6Zm-5.466-.639A.483.483,0,1,1,13,7.448.484.484,0,0,1,12.515,6.965Zm-4.5,1.774a.567.567,0,1,1,.567-.567h0A.582.582,0,0,1,8.015,8.739ZM7.05,13.565A.567.567,0,1,1,7.617,13h0A.582.582,0,0,1,7.05,13.565Zm.965,4.826a.567.567,0,1,1,.567-.567h0A.582.582,0,0,1,8.015,18.391Zm5.466.639A.483.483,0,1,1,13,18.548.484.484,0,0,1,13.481,19.031Zm4.5-1.774a.567.567,0,1,1-.567.567h0A.582.582,0,0,1,17.981,17.257Zm-2.4-3.62a2.628,2.628,0,0,1-.3.736.24.24,0,0,0,0,.253l.483.724-.4.4-.724-.483h-.012c-.012-.012-.024-.012-.048-.024h-.024c-.012,0-.024-.012-.048-.012h-.012a.109.109,0,0,0-.06.012h-.012a.091.091,0,0,0-.048.024h-.012a2.784,2.784,0,0,1-.736.3.25.25,0,0,0-.181.181l-.157.869h-.567l-.169-.857a.218.218,0,0,0-.181-.181,2.628,2.628,0,0,1-.736-.3h-.012c-.012-.012-.036-.012-.048-.024h-.012c-.024,0-.036-.012-.06-.012H11.49a.073.073,0,0,0-.048.012h-.024a.091.091,0,0,0-.048.024h-.012l-.724.483-.4-.4.483-.724a.24.24,0,0,0,0-.253,2.784,2.784,0,0,1-.3-.736.247.247,0,0,0-.193-.181l-.845-.181v-.567l.857-.169a.247.247,0,0,0,.193-.181,2.628,2.628,0,0,1,.3-.736.24.24,0,0,0,0-.253l-.483-.724.4-.4.724.483h.012c.012.012.024.012.048.024h.024c.012,0,.036.012.048.012h.012a.109.109,0,0,0,.06-.012h.012a.091.091,0,0,0,.048-.024h.012a2.784,2.784,0,0,1,.736-.3.25.25,0,0,0,.181-.181l.169-.857H13.3l.169.857a.218.218,0,0,0,.181.181,2.628,2.628,0,0,1,.736.3H14.4c.012.012.036.012.048.024h.012c.024,0,.036.012.06.012h.012a.073.073,0,0,0,.048-.012H14.6a.091.091,0,0,0,.048-.024h.012l.724-.483.4.4-.483.724a.24.24,0,0,0,0,.253,2.784,2.784,0,0,1,.3.736.247.247,0,0,0,.193.181l.857.169v.567l-.857.169A.222.222,0,0,0,15.58,13.638Z" transform="translate(-6 -6)" fill="#747474"/>
        <path id="Path_455" data-name="Path 455" d="M49.243,50.889a.582.582,0,0,0,.35-.543v-.555a.108.108,0,0,1,.109-.109h.265a.241.241,0,1,0,0-.483H49.7a.592.592,0,0,0-.591.591v.555a.1.1,0,0,1-.06.1.6.6,0,0,0,0,1.086.107.107,0,0,1,.06.1v.555a.592.592,0,0,0,.591.591h.265a.241.241,0,1,0,0-.483H49.7a.108.108,0,0,1-.109-.109v-.555a.594.594,0,0,0-.35-.543.107.107,0,0,1,0-.193Z" transform="translate(-43.548 -43.988)" fill="#747474"/>
        <path id="Path_456" data-name="Path 456" d="M67.958,50.443a.107.107,0,0,1-.06-.1v-.555a.592.592,0,0,0-.591-.591h-.265a.241.241,0,1,0,0,.483h.265a.108.108,0,0,1,.109.109v.555a.594.594,0,0,0,.35.543.091.091,0,0,1,.06.1.111.111,0,0,1-.06.1.582.582,0,0,0-.35.543v.555a.108.108,0,0,1-.109.109h-.265a.241.241,0,1,0,0,.483h.265a.592.592,0,0,0,.591-.591v-.555a.1.1,0,0,1,.06-.1.6.6,0,0,0,0-1.086Z" transform="translate(-59.464 -43.988)" fill="#747474"/>
      </g>
    </g>
  </g>
</svg>
