<svg xmlns="http://www.w3.org/2000/svg" width="14" height="14.1" viewBox="0 0 14 14.1">
  <g id="Group_4674" data-name="Group 4674" transform="translate(18901 -19675.949)">
    <rect id="Rectangle_2367" data-name="Rectangle 2367" width="14" height="14" transform="translate(-18901 19676)" fill="none"/>
    <path id="Path_437" data-name="Path 437" d="M29.694,9.194l-1.031-.232c-.035-.1-.075-.193-.119-.286l.565-.887a.2.2,0,0,0-.029-.255l-.987-.979a.207.207,0,0,0-.256-.028l-.894.56c-.093-.044-.19-.083-.287-.118l-.233-1.024a.206.206,0,0,0-.2-.16H24.825a.207.207,0,0,0-.2.16l-.233,1.024q-.146.052-.287.118l-.894-.56a.207.207,0,0,0-.256.028l-.987.979a.205.205,0,0,0-.029.255l.565.887c-.044.093-.084.189-.119.286l-1.031.232a.206.206,0,0,0-.161.2v1.384a.205.205,0,0,0,.162.2l1.031.231c.035.1.075.193.119.286l-.565.887a.2.2,0,0,0,.029.255l.987.979a.207.207,0,0,0,.256.028l.894-.56c.094.044.189.083.287.118l.233,1.024a.206.206,0,0,0,.2.16h1.395a.207.207,0,0,0,.2-.16l.233-1.024q.147-.053.287-.118l.894.56a.207.207,0,0,0,.256-.028l.987-.979a.205.205,0,0,0,.029-.255l-.565-.887c.044-.093.084-.189.119-.286l1.031-.231a.206.206,0,0,0,.161-.2V9.394a.207.207,0,0,0-.161-.2Zm-.253,1.421-.983.22a.2.2,0,0,0-.151.138,2.834,2.834,0,0,1-.184.441.2.2,0,0,0,.008.2l.538.846-.753.747-.852-.534a.209.209,0,0,0-.205-.009,3.02,3.02,0,0,1-.445.184.207.207,0,0,0-.138.15l-.223.975H24.989L24.767,13a.208.208,0,0,0-.138-.15,3.021,3.021,0,0,1-.445-.184.207.207,0,0,0-.205.009l-.852.534-.753-.747.538-.846a.2.2,0,0,0,.008-.2,2.721,2.721,0,0,1-.184-.441.207.207,0,0,0-.151-.138l-.983-.22V9.558l.983-.221a.206.206,0,0,0,.151-.138,2.858,2.858,0,0,1,.185-.441.2.2,0,0,0-.009-.2l-.538-.846.753-.747.852.534a.209.209,0,0,0,.205.009,2.924,2.924,0,0,1,.445-.183.206.206,0,0,0,.139-.15l.223-.976h1.064l.223.976a.205.205,0,0,0,.139.15,2.95,2.95,0,0,1,.445.183.207.207,0,0,0,.205-.009l.852-.534.753.747-.538.846a.2.2,0,0,0-.009.2,2.857,2.857,0,0,1,.185.441.207.207,0,0,0,.151.138l.983.221ZM24.977,8.067a2.087,2.087,0,0,0-1.278.974,2.062,2.062,0,0,0-.21,1.586,2.107,2.107,0,0,0,2.034,1.549,2.132,2.132,0,0,0,.544-.071,2.087,2.087,0,0,0,1.278-.974,2.061,2.061,0,0,0,.21-1.586,2.109,2.109,0,0,0-2.578-1.479Zm2.01,2.859a1.7,1.7,0,0,1-3.1-.4,1.658,1.658,0,0,1,.169-1.274,1.7,1.7,0,0,1,3.1.405A1.654,1.654,0,0,1,26.987,10.926Zm-1.808,3.81a.207.207,0,0,0-.281.081,2,2,0,0,0-.257,1.008.3.3,0,0,1-.31.3H19.707a.3.3,0,0,1-.311-.3,2.434,2.434,0,0,0-.767-1.7,3.431,3.431,0,0,1-.987-2.58,4.321,4.321,0,0,1,4.017-4.233.205.205,0,1,0-.033-.41,4.826,4.826,0,0,0-3.121,1.476,4.571,4.571,0,0,0-1.277,3.167,3.867,3.867,0,0,0,1.084,2.844,2.051,2.051,0,0,1,.67,1.435.713.713,0,0,0,.55.687v.934a.827.827,0,0,0,.851.8h.176v.18a1.464,1.464,0,0,0,2.92,0v-.18h.175a.827.827,0,0,0,.851-.8v-.934a.713.713,0,0,0,.55-.687,1.6,1.6,0,0,1,.206-.81.2.2,0,0,0-.081-.279Zm-2.114,3.689a1.051,1.051,0,0,1-2.092,0v-.18h2.092Zm1.027-.979a.415.415,0,0,1-.437.387H20.382a.415.415,0,0,1-.437-.387v-.913H24.09Z" transform="translate(-18917.543 19670.215)" fill="#747474" stroke="#707070" stroke-width="0.1"/>
  </g>
</svg>
