<svg xmlns="http://www.w3.org/2000/svg" width="14.229" height="13.623" viewBox="0 0 14.229 13.623">
  <g id="Group_4672" data-name="Group 4672" transform="translate(19000.992 -19769.898)">
    <g id="Group_4671" data-name="Group 4671">
      <path id="Path_431" data-name="Path 431" d="M3.974,20.434,3.8,21.484A.5.5,0,0,0,4.536,22l1.608-.887a.221.221,0,1,0-.213-.387l-1.607.887a.055.055,0,0,1-.082-.057l.193-1.2a.221.221,0,0,0-.108-.227,3.543,3.543,0,0,1-1.884-3.041,3.955,3.955,0,0,1,4.2-3.645,4.554,4.554,0,0,1,2.84.962,3.488,3.488,0,0,1,1.338,2.33.221.221,0,0,0,.439-.049,3.926,3.926,0,0,0-1.5-2.627A5,5,0,0,0,6.639,13,4.395,4.395,0,0,0,2,17.088,3.956,3.956,0,0,0,3.974,20.434Z" transform="translate(-19002.893 19756.998)" fill="#747474" stroke="#707070" stroke-width="0.2"/>
      <path id="Path_432" data-name="Path 432" d="M183.279,175.014a4.677,4.677,0,1,0-4.639,4.087,5.316,5.316,0,0,0,.558-.03l1.546.853a.5.5,0,0,0,.731-.514l-.169-1.051a3.956,3.956,0,0,0,1.974-3.346Zm-2.326,3.041a.221.221,0,0,0-.108.227l.193,1.2a.055.055,0,0,1-.081.057l-1.607-.887a.221.221,0,0,0-.107-.027l-.026,0a4.884,4.884,0,0,1-.577.034,3.682,3.682,0,1,1,4.2-3.645,3.543,3.543,0,0,1-1.884,3.041Z" transform="translate(-19170.143 19603.436)" fill="#747474" stroke="#707070" stroke-width="0.2"/>
      <path id="Path_433" data-name="Path 433" d="M292.19,241.842a.221.221,0,0,0-.415,0l-1.2,3.314a.221.221,0,1,0,.415.15l.349-.963h1.286l.349.963a.221.221,0,0,0,.415-.15l-1.2-3.314ZM291.5,243.9l.483-1.335.483,1.335H291.5Z" transform="translate(-19283.486 19534.619)" fill="#747474" stroke="#707070" stroke-width="0.2"/>
      <path id="Path_434" data-name="Path 434" d="M109.805,66.1V65.3h.453a.221.221,0,0,0,0-.442h-1.3v-.639a.221.221,0,0,0-.442,0v.639h-1.3a.221.221,0,0,0,0,.442h2.143V66.1a.8.8,0,0,1-.287.613l-.337.281-.337-.281a.8.8,0,0,1-.287-.613v-.132a.221.221,0,1,0-.442,0V66.1a1.236,1.236,0,0,0,.446.952l.274.229-1.016.847a.221.221,0,0,0,.283.339l1.078-.9.618.515a.221.221,0,0,0,.283-.339l-.555-.463.274-.229a1.236,1.236,0,0,0,.446-.952Z" transform="translate(-19104.994 19707.408)" fill="#747474" stroke="#707070" stroke-width="0.2"/>
      <path id="Path_435" data-name="Path 435" d="M352.223,24.442h1.988v1.722l-.507-.507a.221.221,0,0,0-.312.312l.884.884a.221.221,0,0,0,.312,0l.884-.884a.221.221,0,1,0-.312-.312l-.507.507V24.221a.221.221,0,0,0-.221-.221h-2.209a.221.221,0,0,0,0,.442Z" transform="translate(-19343.229 19746.303)" fill="#747474" stroke="#707070" stroke-width="0.2"/>
      <path id="Path_436" data-name="Path 436" d="M35.314,384.789H33.326v-1.723l.507.507a.221.221,0,0,0,.312-.312l-.884-.884a.221.221,0,0,0-.312,0l-.884.884a.221.221,0,0,0,.312.312l.507-.507v1.943a.221.221,0,0,0,.221.221h2.209a.221.221,0,0,0,0-.442Z" transform="translate(-19032.064 19397.887)" fill="#747474" stroke="#707070" stroke-width="0.2"/>
    </g>
  </g>
</svg>
