<svg xmlns="http://www.w3.org/2000/svg" width="25.626" height="22.765" viewBox="0 0 25.626 22.765">
  <g id="noun-speak-7284253" transform="translate(0.261 0.25)">
    <path id="Path_385" data-name="Path 385" d="M47.373,30.469c.3.368.462.643.44.845-.064.931-.874,1.011-1.47,1.342-.788.722,1.456,1.444-1.122,2.166.951.426,1.079,1.155.667,1.494a.742.742,0,0,0-.057.722h0a1.407,1.407,0,0,1-.15,1.242,1.362,1.362,0,0,1-1.072.613h-.262l-1.242-.188h-.157a1.21,1.21,0,0,0-.872.379,1.249,1.249,0,0,0-.343.9v.188a1.26,1.26,0,0,1-.374.894,1.217,1.217,0,0,1-.889.355H33.1a1.229,1.229,0,0,1-.925-.415,1.269,1.269,0,0,1-.309-.978V39.8a4.417,4.417,0,0,0-1.08-3.436c-2.84-3.162-5.054-9.016-2-13.174a10.88,10.88,0,0,1,8.6-4.035A9.146,9.146,0,0,1,42.1,20.37a7.773,7.773,0,0,1,3.663,6.584,5.2,5.2,0,0,0-.042,1.407,5.626,5.626,0,0,0,1.654,2.108ZM44.66,27.315a2.62,2.62,0,0,0,.035-.376A6.677,6.677,0,0,0,41.564,21.3a8.2,8.2,0,0,0-4.181-1.062,9.722,9.722,0,0,0-7.725,3.609c-2.84,3.862-.312,9.29,1.939,11.8a5.5,5.5,0,0,1,1.349,4.288v.21a.192.192,0,0,0,.043.144.175.175,0,0,0,.135.058h7.348A.175.175,0,0,0,40.6,40.3a.209.209,0,0,0,.05-.13v-.209a2.347,2.347,0,0,1,.646-1.689,2.3,2.3,0,0,1,1.634-.722,1.658,1.658,0,0,1,.29,0c.383.051.817.109,1.279.188h.093c.1,0,.114,0,.135-.051a.614.614,0,0,0,.05-.477,1.861,1.861,0,0,1,.107-1.444l-.107-.051a1.1,1.1,0,0,1,.155-2.043l.291-.086a1.54,1.54,0,0,1,.4-1.819,1.05,1.05,0,0,1,.184-.131c.184-.1.362-.18.526-.252a2.719,2.719,0,0,0,.32-.144l-.093-.116-.241-.238a5.285,5.285,0,0,1-1.654-2.318,3.5,3.5,0,0,1-.007-1.255Z" transform="translate(-27.315 -19.156)" fill="#fff" stroke="#fff" stroke-width="0.5"/>
    <path id="Path_386" data-name="Path 386" d="M17.555,61.585a.593.593,0,0,1-.585.585H14.085a.585.585,0,0,1,0-1.17H16.97A.585.585,0,0,1,17.555,61.585Z" transform="translate(7.56 -45.959)" fill="#fff" stroke="#fff" stroke-width="0.5"/>
    <path id="Path_387" data-name="Path 387" d="M16.26,53.674l2.5-1.42a.584.584,0,0,1,.78.227.578.578,0,0,1-.218.78l-2.5,1.42v0a.533.533,0,0,1-.288.079.576.576,0,0,1-.273-1.085Z" transform="translate(4.543 -40.379)" fill="#fff" stroke="#fff" stroke-width="0.5"/>
    <path id="Path_388" data-name="Path 388" d="M19.007,68.74a.565.565,0,0,1-.289-.078l-2.5-1.42h0a.587.587,0,1,1,.577-1.022l2.5,1.427a.588.588,0,0,1-.288,1.092Z" transform="translate(4.588 -49.611)" fill="#fff" stroke="#fff" stroke-width="0.5"/>
  </g>
</svg>
