<svg xmlns="http://www.w3.org/2000/svg" width="13.918" height="14.199" viewBox="0 0 13.918 14.199">
  <path id="Path_438" data-name="Path 438" d="M10.813,14.852a3.331,3.331,0,0,0-.67-2.349,2.751,2.751,0,0,0-2.182-.857,3.021,3.021,0,0,0-2.363.871,2.642,2.642,0,0,0-.613,1.874c0,.163.055,1.663,1.2,2.093a.2.2,0,0,1,.134.235l-.286,1.154a.659.659,0,0,0,.119.562.641.641,0,0,0,.513.252H8.7a.411.411,0,0,0,.41-.413.241.241,0,0,1,.241-.242h.663a.8.8,0,0,0,.792-.8v-.909h0a.479.479,0,0,0,.415-.238.474.474,0,0,0,0-.48l-.415-.754Zm-.246.991a.24.24,0,0,0-.238.24v1.149a.315.315,0,0,1-.315.317H9.352a.72.72,0,0,0-.715.655H6.664a.164.164,0,0,1-.136-.067.167.167,0,0,1-.031-.149l.286-1.154a.681.681,0,0,0-.429-.8c-.875-.329-.889-1.644-.889-1.656v-.024a2.188,2.188,0,0,1,.5-1.519,2.578,2.578,0,0,1,2.005-.708,2.3,2.3,0,0,1,1.819.691,2.962,2.962,0,0,1,.551,2.057.224.224,0,0,0,.029.146l.448.823h-.241Zm7.5-10.285A3.022,3.022,0,0,0,15.7,4.687a2.751,2.751,0,0,0-2.182.857,3.331,3.331,0,0,0-.67,2.349l-.415.754a.485.485,0,0,0,0,.48.473.473,0,0,0,.415.238v.91a.8.8,0,0,0,.794.8h.663a.241.241,0,0,1,.241.242.412.412,0,0,0,.413.413H17a.645.645,0,0,0,.513-.252.659.659,0,0,0,.119-.562l-.286-1.154a.2.2,0,0,1,.134-.235c1.147-.432,1.2-1.932,1.2-2.093a2.635,2.635,0,0,0-.613-1.874ZM18.2,7.394v.024c0,.014-.014,1.327-.889,1.656a.682.682,0,0,0-.429.8l.286,1.154a.174.174,0,0,1-.031.149.17.17,0,0,1-.136.067H15.026a.72.72,0,0,0-.715-.655h-.663a.315.315,0,0,1-.315-.317V9.122a.24.24,0,0,0-.238-.24l-.243,0,.453-.818a.261.261,0,0,0,.029-.146,2.95,2.95,0,0,1,.551-2.057A2.3,2.3,0,0,1,15.7,5.165a2.578,2.578,0,0,1,2.005.708,2.19,2.19,0,0,1,.5,1.519ZM7.144,9.887a.242.242,0,0,1,.014-.338.237.237,0,0,1,.336.017l.3.331V7.73a1.6,1.6,0,0,1,1.593-1.6h2.461a.24.24,0,0,1,0,.48H9.387A1.121,1.121,0,0,0,8.271,7.73V9.9l.3-.331a.238.238,0,1,1,.351.322l-.715.79a.236.236,0,0,1-.353,0l-.715-.79Zm9.414,3.345a.242.242,0,0,1-.014.338.239.239,0,0,1-.16.062.237.237,0,0,1-.176-.079l-.3-.331V15.56a1.6,1.6,0,0,1-1.593,1.6H11.853a.24.24,0,0,1,0-.48h2.461A1.121,1.121,0,0,0,15.43,15.56V13.223l-.3.331a.238.238,0,1,1-.351-.322l.715-.79a.244.244,0,0,1,.353,0l.715.79Z" transform="translate(-4.877 -4.588)" fill="#747474" stroke="#707070" stroke-width="0.2"/>
</svg>
