<svg xmlns="http://www.w3.org/2000/svg" width="21.099" height="21.099" viewBox="0 0 21.099 21.099">
  <g id="noun-profile-7722712" transform="translate(-12.583 -12.582)">
    <path id="Path_2696" data-name="Path 2696" d="M16.148,31.032a10.519,10.519,0,0,0,6.984,2.649,10.308,10.308,0,0,0,1.909-.176,10.555,10.555,0,1,0-8.892-2.473Zm6.15,1.439c-.088-.006-.182-.023-.27-.035-.182-.023-.37-.041-.552-.076-.106-.018-.211-.047-.312-.07-.164-.035-.329-.07-.493-.111-.111-.03-.217-.07-.323-.1-.153-.047-.312-.094-.458-.153-.111-.041-.217-.088-.323-.135-.146-.058-.294-.118-.435-.188-.111-.053-.217-.111-.323-.164-.135-.07-.276-.141-.405-.224-.106-.065-.211-.129-.317-.2-.129-.083-.252-.164-.376-.252-.106-.076-.206-.153-.305-.235-.076-.058-.146-.118-.224-.182a6.092,6.092,0,0,1,5.951-4.911h.024a6.1,6.1,0,0,1,5.951,4.911c-.07.058-.146.118-.217.176-.106.083-.206.164-.312.235-.123.088-.247.164-.37.247a3.636,3.636,0,0,1-.323.2c-.129.076-.264.146-.4.217-.111.058-.217.118-.329.171-.141.065-.282.123-.428.182-.111.047-.217.094-.329.135-.153.053-.305.1-.458.146-.111.035-.217.07-.329.1-.164.047-.329.076-.493.111-.106.023-.206.053-.312.07-.182.035-.37.053-.552.076-.088.012-.182.03-.27.035-.276.023-.552.035-.834.035s-.579.012-.855-.011ZM19.983,21.118a3.149,3.149,0,1,1,3.155,3.149h-.011a3.156,3.156,0,0,1-3.144-3.149Zm3.149-7.36A9.373,9.373,0,0,1,30.07,29.435a7.276,7.276,0,0,0-4.511-4.74,4.323,4.323,0,1,0-4.85,0,7.289,7.289,0,0,0-4.511,4.74,9.371,9.371,0,0,1,6.935-15.678Z" fill="#e9f5f9"/>
  </g>
</svg>
