<svg xmlns="http://www.w3.org/2000/svg" width="13.995" height="11.951" viewBox="0 0 13.995 11.951">
  <g id="noun-voice-7405730" transform="translate(-8.431 -14.458)">
    <path id="Path_3558" data-name="Path 3558" d="M19.219,21.8a3.91,3.91,0,0,1-.564-1.9c0-2.019-1.1-5.436-5.2-5.436a4.616,4.616,0,0,0-4.2,2A6.819,6.819,0,0,0,8.866,22.1a3.762,3.762,0,0,0,.691,1.048c.245.27.357.4.357,1.664v1.248a.351.351,0,0,0,.35.35h3.775a.351.351,0,0,0,.35-.35v-.617a1.647,1.647,0,0,0,.95.3h1.682A.934.934,0,0,0,17.933,25l.371-1.882.712-.329a.63.63,0,0,0,.323-.354.61.61,0,0,0-.032-.476l-.084-.161Zm-1.374.76a.345.345,0,0,0-.2.249l-.407,2.057a.229.229,0,0,1-.224.182H15.336a.95.95,0,0,1-.95-.95V24a.35.35,0,1,0-.7,0v1.714H10.612v-.9c0-1.409-.147-1.7-.536-2.134a3.026,3.026,0,0,1-.575-.876,6.24,6.24,0,0,1,.344-4.97,3.958,3.958,0,0,1,3.606-1.675c4.377,0,4.5,4.248,4.5,4.735a4.581,4.581,0,0,0,.645,2.229l.035.066-.789.365Z" transform="translate(0 0)" fill="#27a745"/>
    <path id="Path_3559" data-name="Path 3559" d="M78.954,45.2a.349.349,0,1,0-.382.585,3,3,0,0,1,0,5.029.349.349,0,0,0,.193.641.354.354,0,0,0,.193-.056,3.7,3.7,0,0,0-.007-6.2Z" transform="translate(-58.21 -25.523)" fill="#27a745"/>
    <path id="Path_3560" data-name="Path 3560" d="M76.483,52.965a2.569,2.569,0,0,0-1.17-2.162.349.349,0,0,0-.382.585,1.884,1.884,0,0,1,0,3.154.349.349,0,0,0,.193.641.354.354,0,0,0,.193-.056,2.581,2.581,0,0,0,1.17-2.162Z" transform="translate(-55.179 -30.184)" fill="#27a745"/>
  </g>
</svg>
